<svg width="833" height="867" viewBox="0 0 833 867" fill="none" xmlns="http://www.w3.org/2000/svg">
<rect width="5428" height="1289" transform="translate(-3390 -202)" fill="transparent"/>
<path d="M-3334.5 716.471L-3259.79 603.336C-3206.42 646.028 -3093.29 697.259 -3002.57 697.259C-2890.5 697.259 -2853.14 652.432 -2853.14 604.403C-2853.14 530.759 -2937.46 513.682 -3030.32 495.538C-3122.11 477.393 -3328.1 448.576 -3328.1 259.662C-3328.1 76.0849 -3162.66 26.9887 -3031.38 26.9887C-2900.1 26.9887 -2818.99 67.5464 -2740.01 127.316L-2822.19 240.451C-2886.23 196.691 -2963.08 165.739 -3047.39 165.739C-3106.1 165.739 -3178.67 183.883 -3178.67 244.72C-3178.67 316.23 -3079.41 335.441 -2997.23 352.518C-2903.31 371.73 -2703.72 386.672 -2703.72 595.865C-2703.72 757.029 -2824.33 834.942 -3000.43 834.942C-3162.66 834.942 -3252.32 777.308 -3334.5 716.471ZM-2078.65 38.7291V171.076H-2301.72V820H-2451.14V171.076H-2675.28V38.7291H-2078.65ZM-1385.84 171.076H-1811.7V366.393H-1433.87V498.74H-1811.7V687.654H-1385.84V820H-1960.05V38.7291H-1385.84V171.076ZM-1082.07 687.654H-669.018V820H-1231.49V38.7291H-1082.07V687.654ZM-425.422 687.654H-12.3725V820H-574.845V38.7291H-425.422V687.654ZM165.051 820H2.81988L401.994 38.7291H416.936L816.11 820H653.879L593.042 697.259H224.82L165.051 820ZM409.465 331.172L297.397 567.048H520.465L409.465 331.172ZM1194.63 571.317H1046.27V820H897.918V38.7291H1252.26C1411.29 38.7291 1521.23 149.729 1521.23 307.691C1521.23 425.095 1457.19 530.759 1359 557.442L1554.31 820H1376.07L1194.63 571.317ZM1046.27 171.076V441.105H1217.04C1342.99 441.105 1372.87 372.797 1372.87 306.624C1372.87 230.845 1326.98 171.076 1217.04 171.076H1046.27Z" fill="white"/>
</svg>
