<svg width="620" height="867" viewBox="0 0 620 867" fill="none" xmlns="http://www.w3.org/2000/svg">
<rect width="5428" height="1289" transform="translate(-1410 -202)" fill="transparent"/>
<path d="M-1354.5 716.471L-1279.79 603.336C-1226.42 646.028 -1113.29 697.259 -1022.57 697.259C-910.499 697.259 -873.143 652.432 -873.143 604.403C-873.143 530.759 -957.461 513.682 -1050.32 495.538C-1142.11 477.393 -1348.1 448.576 -1348.1 259.662C-1348.1 76.0849 -1182.66 26.9887 -1051.38 26.9887C-920.105 26.9887 -838.989 67.5464 -760.008 127.316L-842.191 240.451C-906.23 196.691 -983.076 165.739 -1067.39 165.739C-1126.1 165.739 -1198.67 183.883 -1198.67 244.72C-1198.67 316.23 -1099.41 335.441 -1017.23 352.518C-923.307 371.73 -723.72 386.672 -723.72 595.865C-723.72 757.029 -844.326 834.942 -1020.43 834.942C-1182.66 834.942 -1272.32 777.308 -1354.5 716.471ZM-98.6513 38.7291V171.076H-321.719V820H-471.142V171.076H-695.278V38.7291H-98.6513ZM594.158 171.076H168.301V366.393H546.129V498.74H168.301V687.654H594.158V820H19.9451V38.7291H594.158V171.076ZM897.933 687.654H1310.98V820H748.509V38.7291H897.933V687.654ZM1554.58 687.654H1967.63V820H1405.16V38.7291H1554.58V687.654ZM2145.05 820H1982.82L2381.99 38.7291H2396.94L2796.11 820H2633.88L2573.04 697.259H2204.82L2145.05 820ZM2389.46 331.172L2277.4 567.048H2500.47L2389.46 331.172ZM3174.63 571.317H3026.27V820H2877.92V38.7291H3232.26C3391.29 38.7291 3501.23 149.729 3501.23 307.691C3501.23 425.095 3437.19 530.759 3339 557.442L3534.31 820H3356.07L3174.63 571.317ZM3026.27 171.076V441.105H3197.04C3322.99 441.105 3352.87 372.797 3352.87 306.624C3352.87 230.845 3306.98 171.076 3197.04 171.076H3026.27Z" fill="white"/>
</svg>
