<svg width="1280" height="1280" viewBox="0 0 1280 1280" fill="none" xmlns="http://www.w3.org/2000/svg">
<g clip-path="url(#clip0_143_45)">
<rect width="1280" height="1280" fill="#0B0B0D" fill-opacity="0.7"/>
<rect x="625.978" y="906.202" width="34.2835" height="268.188" stroke="#35373B" stroke-width="4.93106"/>
<rect x="625.978" y="105.466" width="34.2835" height="268.188" stroke="#35373B" stroke-width="4.93106"/>
<rect x="140.466" y="659.187" width="38.5198" height="282.642" transform="rotate(-90 140.466 659.187)" stroke="#35373B" stroke-width="4.93106"/>
<rect x="819.921" y="657.911" width="35.9674" height="313.045" transform="rotate(-90 819.921 657.911)" stroke="#35373B" stroke-width="4.93106"/>
<ellipse cx="408.345" cy="388.534" rx="216.192" ry="229.669" stroke="#35373B" stroke-width="4.93106"/>
<ellipse cx="402.231" cy="380.449" rx="257.527" ry="273.581" stroke="#35373B" stroke-width="4.93106"/>
<ellipse cx="878.919" cy="891.316" rx="216.192" ry="229.669" stroke="#35373B" stroke-width="4.93106"/>
<ellipse cx="883.486" cy="897.976" rx="257.514" ry="273.567" stroke="#35373B" stroke-width="4.93106"/>
<rect x="625.419" y="372.47" width="37.6937" height="217.184" fill="white"/>
<rect x="625.419" y="699.586" width="37.6937" height="210.481" fill="white"/>
<path d="M755.399 656.675L822.343 636.578L885.376 659.368L885.376 660.709L847.685 667.403L837.936 668.073L822.343 672.085L809.345 676.107L786.594 686.169L770.997 695.553L755.398 708.29L739.151 725.047L722.904 743.815L711.853 757.894L701.455 773.558L686.509 802.806L672.861 842.355L662.463 902.014L650.116 773.558L664.414 749.179L680.008 725.048L702.105 699.576L717.702 684.829L732 673.433L755.399 656.675Z" fill="white"/>
<path d="M532.471 623.381L465.538 643.516L402.493 620.76L402.492 619.419L440.18 612.704L449.928 612.028L465.519 608.008L478.515 603.979L501.26 593.904L516.853 584.511L532.445 571.766L548.683 555L564.92 536.223L575.964 522.138L586.354 506.468L601.285 477.212L614.912 437.655L625.279 377.991L637.693 506.44L623.408 530.826L607.826 554.966L585.743 580.45L570.153 595.206L555.861 606.61L532.471 623.381Z" fill="white"/>
<rect x="403.156" y="620.489" width="482.22" height="38.8787" fill="white"/>
</g>
<defs>
<clipPath id="clip0_143_45">
<rect width="1280" height="1280" fill="white"/>
</clipPath>
</defs>
</svg>
