<svg width="620" height="867" viewBox="0 0 620 867" fill="none" xmlns="http://www.w3.org/2000/svg">
<rect width="5428" height="1289" transform="translate(-2118 -202)" fill="transparent"/>
<path d="M-2062.5 716.471L-1987.79 603.336C-1934.42 646.028 -1821.29 697.259 -1730.57 697.259C-1618.5 697.259 -1581.14 652.432 -1581.14 604.403C-1581.14 530.759 -1665.46 513.682 -1758.32 495.538C-1850.11 477.393 -2056.1 448.576 -2056.1 259.662C-2056.1 76.0849 -1890.66 26.9887 -1759.38 26.9887C-1628.1 26.9887 -1546.99 67.5464 -1468.01 127.316L-1550.19 240.451C-1614.23 196.691 -1691.08 165.739 -1775.39 165.739C-1834.1 165.739 -1906.67 183.883 -1906.67 244.72C-1906.67 316.23 -1807.41 335.441 -1725.23 352.518C-1631.31 371.73 -1431.72 386.672 -1431.72 595.865C-1431.72 757.029 -1552.33 834.942 -1728.43 834.942C-1890.66 834.942 -1980.32 777.308 -2062.5 716.471ZM-806.651 38.7291V171.076H-1029.72V820H-1179.14V171.076H-1403.28V38.7291H-806.651ZM-113.842 171.076H-539.699V366.393H-161.871V498.74H-539.699V687.654H-113.842V820H-688.055V38.7291H-113.842V171.076ZM189.933 687.654H602.982V820H40.5093V38.7291H189.933V687.654ZM846.578 687.654H1259.63V820H697.155V38.7291H846.578V687.654ZM1437.05 820H1274.82L1673.99 38.7291H1688.94L2088.11 820H1925.88L1865.04 697.259H1496.82L1437.05 820ZM1681.46 331.172L1569.4 567.048H1792.47L1681.46 331.172ZM2466.63 571.317H2318.27V820H2169.92V38.7291H2524.26C2683.29 38.7291 2793.23 149.729 2793.23 307.691C2793.23 425.095 2729.19 530.759 2631 557.442L2826.31 820H2648.07L2466.63 571.317ZM2318.27 171.076V441.105H2489.04C2614.99 441.105 2644.87 372.797 2644.87 306.624C2644.87 230.845 2598.98 171.076 2489.04 171.076H2318.27Z" fill="white"/>
</svg>
