<svg width="120" height="50" viewBox="0 0 120 50" fill="none" xmlns="http://www.w3.org/2000/svg">
<g clip-path="url(#clip0_217_4)">
<path d="M38.6581 28.493C39.6327 29.2145 40.6958 29.8979 42.6195 29.8979C44.7078 29.8979 46.138 28.974 46.138 27.0629C46.138 24.5823 43.7713 24.4051 42.6575 24.1773C41.683 23.9748 40.5059 23.7469 40.5059 22.899C40.5059 22.1776 41.3666 21.9624 42.0627 21.9624C43.0625 21.9624 43.9738 22.3294 44.7331 22.8484L45.7077 21.5068C44.7711 20.798 43.8092 20.3171 42.2525 20.3171C40.6958 20.3171 38.7341 20.8993 38.7341 23.0762C38.7341 25.3163 41.1767 25.658 42.2652 25.8732C43.3663 26.0884 44.3661 26.2909 44.3661 27.1641C44.3661 27.7337 43.9231 28.2652 42.5942 28.2652C41.5184 28.2652 40.1769 27.6577 39.5441 27.1515L38.6581 28.493ZM54.8157 20.4563H47.7409V22.0257H50.3987V29.7207H52.1706V22.0257H54.8157V20.4563ZM64.2967 22.0257V20.4563H57.4877V29.7207H64.2967V28.1513H59.2469V25.9112H63.7272V24.3418H59.2469V22.0257H64.2967ZM69.1646 28.1513V20.4563H67.3927V29.7207H74.0625V28.1513H69.1646ZM78.2168 28.1513V20.4563H76.4449V29.7207H83.1147V28.1513H78.2168ZM86.4843 29.7207L87.193 28.2652H91.5594L92.2808 29.7207H94.2046L89.4711 20.4563H89.2939L84.5605 29.7207H86.4843ZM89.3825 23.9241L90.6988 26.7212H88.0536L89.3825 23.9241ZM99.9587 26.7718L102.11 29.7207H104.224L101.908 26.6073C103.072 26.2909 103.832 25.0379 103.832 23.6457C103.832 21.7726 102.528 20.4563 100.642 20.4563H96.4403V29.7207H98.1995V26.7718H99.9587ZM98.1995 22.0257H100.225C101.528 22.0257 102.072 22.7344 102.072 23.633C102.072 24.4177 101.718 25.2277 100.225 25.2277H98.1995V22.0257Z" fill="white"/>
<ellipse cx="111.915" cy="18.1506" rx="2.08505" ry="2.1506" fill="white"/>
<rect x="19.6796" y="33.163" width="1.03136" height="8.06797" stroke="#35373B" stroke-width="0.148342"/>
<rect x="19.6796" y="9.07417" width="1.03136" height="8.06797" stroke="#35373B" stroke-width="0.148342"/>
<rect x="5.07417" y="25.7315" width="1.1588" height="8.50278" transform="rotate(-90 5.07417 25.7315)" stroke="#35373B" stroke-width="0.148342"/>
<rect x="25.5147" y="25.6933" width="1.08201" height="9.4174" transform="rotate(-90 25.5147 25.6933)" stroke="#35373B" stroke-width="0.148342"/>
<ellipse cx="13.1327" cy="17.5898" rx="6.50375" ry="6.90917" stroke="#35373B" stroke-width="0.148342"/>
<ellipse cx="12.9484" cy="17.3464" rx="7.74725" ry="8.2302" stroke="#35373B" stroke-width="0.148342"/>
<ellipse cx="27.2889" cy="32.7148" rx="6.50375" ry="6.90917" stroke="#35373B" stroke-width="0.148342"/>
<ellipse cx="27.4265" cy="32.9153" rx="7.74685" ry="8.22977" stroke="#35373B" stroke-width="0.148342"/>
<rect x="19.6631" y="17.1064" width="1.13395" height="6.5336" fill="white"/>
<rect x="19.6631" y="26.9473" width="1.13395" height="6.33195" fill="white"/>
<path d="M23.573 25.6562L25.5869 25.0516L27.4832 25.7372L27.4832 25.7775L26.3493 25.9789L26.056 25.9991L25.5869 26.1198L25.1959 26.2408L24.5115 26.5435L24.0423 26.8258L23.573 27.2089L23.0843 27.713L22.5955 28.2776L22.263 28.7012L21.9502 29.1724L21.5006 30.0523L21.09 31.242L20.7772 33.0368L20.4058 29.1724L20.8359 28.439L21.305 27.7131L21.9698 26.9468L22.439 26.5032L22.8691 26.1603L23.573 25.6562Z" fill="white"/>
<path d="M16.8672 24.6547L14.8536 25.2604L12.957 24.5759L12.957 24.5355L14.0908 24.3335L14.384 24.3132L14.8531 24.1922L15.244 24.071L15.9283 23.768L16.3973 23.4854L16.8664 23.102L17.3549 22.5976L17.8434 22.0327L18.1756 21.609L18.4882 21.1376L18.9373 20.2575L19.3473 19.0675L19.6591 17.2726L20.0326 21.1367L19.6028 21.8704L19.1341 22.5966L18.4698 23.3632L18.0008 23.8071L17.5708 24.1502L16.8672 24.6547Z" fill="white"/>
<rect x="12.9766" y="24.5674" width="14.5067" height="1.1696" fill="white"/>
</g>
<defs>
<clipPath id="clip0_217_4">
<rect width="120" height="50" fill="white"/>
</clipPath>
</defs>
</svg>
