<svg width="1733" height="722" viewBox="0 0 1733 722" fill="none" xmlns="http://www.w3.org/2000/svg">
<g clipPath="url(#clip0_217_4)">
<path d="M558.224 406.16C572.296 416.577 587.648 426.446 615.427 426.446C645.582 426.446 666.233 413.104 666.233 385.508C666.233 349.688 632.058 347.129 615.975 343.84C601.903 340.916 584.906 337.626 584.906 325.381C584.906 314.964 597.334 311.857 607.386 311.857C621.823 311.857 634.982 317.157 645.947 324.65L660.019 305.278C646.495 295.044 632.606 288.099 610.127 288.099C587.648 288.099 559.321 296.506 559.321 327.94C559.321 360.288 594.593 365.222 610.31 368.329C626.209 371.436 640.647 374.36 640.647 386.97C640.647 395.194 634.251 402.87 615.061 402.87C599.527 402.87 580.155 394.098 571.017 386.787L558.224 406.16ZM791.54 290.109H689.379V312.771H727.758V423.887H753.344V312.771H791.54V290.109ZM928.446 312.771V290.109H830.123V423.887H928.446V401.225H855.526V368.877H920.222V346.215H855.526V312.771H928.446ZM998.737 401.225V290.109H973.151V423.887H1069.46V401.225H998.737ZM1129.45 401.225V290.109H1103.86V423.887H1200.18V401.225H1129.45ZM1248.83 423.887L1259.07 402.87H1322.12L1332.54 423.887H1360.31L1291.96 290.109H1289.41L1221.05 423.887H1248.83ZM1290.68 340.185L1309.69 380.574H1271.5L1290.68 340.185ZM1443.4 381.305L1474.47 423.887H1504.99L1471.55 378.929C1488.36 374.36 1499.33 356.267 1499.33 336.164C1499.33 309.116 1480.5 290.109 1453.27 290.109H1392.6V423.887H1418V381.305H1443.4ZM1418 312.771H1447.24C1466.07 312.771 1473.93 323.005 1473.93 335.981C1473.93 347.312 1468.81 359.008 1447.24 359.008H1418V312.771Z" fill="white"/>
<ellipse cx="1616.06" cy="262.095" rx="30.1081" ry="31.0546" fill="white"/>
<rect x="284.174" y="478.874" width="14.8928" height="116.501" stroke="#6D7076" strokeWidth="2.14206"/>
<rect x="284.174" y="131.031" width="14.8928" height="116.501" stroke="#6D7076" strokeWidth="2.14206"/>
<rect x="73.2712" y="371.563" width="16.733" height="122.78" transform="rotate(-90 73.2712 371.563)" stroke="#6D7076" strokeWidth="2.14206"/>
<rect x="368.432" y="371.011" width="15.6243" height="135.987" transform="rotate(-90 368.432 371.011)" stroke="#6D7076" strokeWidth="2.14206"/>
<ellipse cx="189.636" cy="253.997" rx="93.9141" ry="99.7684" stroke="#6D7076" strokeWidth="2.14206"/>
<ellipse cx="186.975" cy="250.482" rx="111.87" ry="118.844" stroke="#6D7076" strokeWidth="2.14206"/>
<ellipse cx="394.052" cy="472.402" rx="93.9141" ry="99.7684" stroke="#6D7076" strokeWidth="2.14206"/>
<ellipse cx="396.039" cy="475.297" rx="111.865" ry="118.838" stroke="#6D7076" strokeWidth="2.14206"/>
<rect x="283.935" y="247.017" width="16.3742" height="94.3452" fill="white"/>
<rect x="283.935" y="389.119" width="16.3742" height="91.4333" fill="white"/>
<path d="M340.394 370.475L369.475 361.745L396.857 371.645L396.857 372.228L380.484 375.136L376.249 375.427L369.475 377.169L363.829 378.917L353.946 383.288L347.17 387.364L340.394 392.897L333.336 400.176L326.279 408.329L321.478 414.445L316.961 421.249L310.468 433.955L304.54 451.135L300.023 477.051L294.659 421.249L300.87 410.659L307.645 400.177L317.243 389.112L324.019 382.706L330.23 377.755L340.394 370.475Z" fill="white"/>
<path d="M243.562 356.014L214.486 364.761L187.099 354.876L187.099 354.293L203.471 351.376L207.705 351.082L214.478 349.336L220.124 347.586L230.004 343.209L236.778 339.129L243.551 333.592L250.605 326.309L257.658 318.152L262.456 312.034L266.969 305.227L273.455 292.518L279.375 275.334L283.878 249.416L289.271 305.215L283.065 315.808L276.297 326.294L266.703 337.365L259.931 343.775L253.723 348.729L243.562 356.014Z" fill="white"/>
<rect x="187.382" y="354.753" width="209.477" height="16.889" fill="white"/>
</g>
<defs>
<clipPath id="clip0_217_4">
<rect width="1732.8" height="722" fill="white"/>
</clipPath>
</defs>
</svg>
