<svg width="681" height="867" viewBox="0 0 681 867" fill="none" xmlns="http://www.w3.org/2000/svg">
<rect width="5428" height="1289" transform="translate(-4268 -202)" fill="transparent"/>
<path d="M-4212.5 716.471L-4137.79 603.336C-4084.42 646.028 -3971.29 697.259 -3880.57 697.259C-3768.5 697.259 -3731.14 652.432 -3731.14 604.403C-3731.14 530.759 -3815.46 513.682 -3908.32 495.538C-4000.11 477.393 -4206.1 448.576 -4206.1 259.662C-4206.1 76.0849 -4040.66 26.9887 -3909.38 26.9887C-3778.1 26.9887 -3696.99 67.5464 -3618.01 127.316L-3700.19 240.451C-3764.23 196.691 -3841.08 165.739 -3925.39 165.739C-3984.1 165.739 -4056.67 183.883 -4056.67 244.72C-4056.67 316.23 -3957.41 335.441 -3875.23 352.518C-3781.31 371.73 -3581.72 386.672 -3581.72 595.865C-3581.72 757.029 -3702.33 834.942 -3878.43 834.942C-4040.66 834.942 -4130.32 777.308 -4212.5 716.471ZM-2956.65 38.7291V171.076H-3179.72V820H-3329.14V171.076H-3553.28V38.7291H-2956.65ZM-2263.84 171.076H-2689.7V366.393H-2311.87V498.74H-2689.7V687.654H-2263.84V820H-2838.05V38.7291H-2263.84V171.076ZM-1960.07 687.654H-1547.02V820H-2109.49V38.7291H-1960.07V687.654ZM-1303.42 687.654H-890.373V820H-1452.84V38.7291H-1303.42V687.654ZM-712.949 820H-875.18L-476.006 38.7291H-461.064L-61.8899 820H-224.121L-284.958 697.259H-653.18L-712.949 820ZM-468.535 331.172L-580.603 567.048H-357.535L-468.535 331.172ZM316.63 571.317H168.274V820H19.9175V38.7291H374.264C533.294 38.7291 643.227 149.729 643.227 307.691C643.227 425.095 579.188 530.759 480.995 557.442L676.313 820H498.072L316.63 571.317ZM168.274 171.076V441.105H339.043C464.986 441.105 494.87 372.797 494.87 306.624C494.87 230.845 448.976 171.076 339.043 171.076H168.274Z" fill="white"/>
</svg>
