<svg width="771" height="987" viewBox="0 0 771 987" fill="none" xmlns="http://www.w3.org/2000/svg">
<path d="M0.724644 841.667L91.8924 703.613C157.012 755.709 295.066 818.224 405.77 818.224C542.522 818.224 588.106 763.524 588.106 704.916C588.106 615.05 485.216 594.212 371.908 572.071C259.902 549.931 8.53903 514.766 8.53903 284.242C8.53903 60.2293 210.411 0.31901 370.605 0.31901C530.8 0.31901 629.782 49.8101 726.16 122.744L625.875 260.798C547.731 207.4 453.959 169.631 351.069 169.631C279.438 169.631 190.875 191.771 190.875 266.008C190.875 353.269 311.998 376.712 412.282 397.55C526.893 420.993 770.441 439.227 770.441 694.497C770.441 891.159 623.27 986.234 408.375 986.234C210.411 986.234 101.009 915.904 0.724644 841.667Z" fill="black"/>
</svg>
