<svg width="646" height="860" viewBox="0 0 646 860" fill="none" xmlns="http://www.w3.org/2000/svg">
<rect width="5428" height="1289" transform="translate(-50 -209)" fill="transparent"/>
<path d="M5.50012 709.471L80.2118 596.336C133.577 639.028 246.712 690.259 337.434 690.259C449.501 690.259 486.857 645.432 486.857 597.403C486.857 523.759 402.539 506.682 309.683 488.538C217.895 470.393 11.904 441.576 11.904 252.662C11.904 69.0849 177.337 19.9887 308.616 19.9887C439.895 19.9887 521.011 60.5464 599.992 120.316L517.809 233.451C453.77 189.691 376.924 158.739 292.607 158.739C233.904 158.739 161.327 176.883 161.327 237.72C161.327 309.23 260.587 328.441 342.77 345.518C436.693 364.73 636.28 379.672 636.28 588.865C636.28 750.029 515.674 827.942 339.568 827.942C177.337 827.942 87.683 770.308 5.50012 709.471ZM1261.35 31.7291V164.076H1038.28V813H888.858V164.076H664.722V31.7291H1261.35ZM1954.16 164.076H1528.3V359.393H1906.13V491.74H1528.3V680.654H1954.16V813H1379.95V31.7291H1954.16V164.076ZM2257.93 680.654H2670.98V813H2108.51V31.7291H2257.93V680.654ZM2914.58 680.654H3327.63V813H2765.16V31.7291H2914.58V680.654ZM3505.05 813H3342.82L3741.99 31.7291H3756.94L4156.11 813H3993.88L3933.04 690.259H3564.82L3505.05 813ZM3749.46 324.172L3637.4 560.048H3860.47L3749.46 324.172ZM4534.63 564.317H4386.27V813H4237.92V31.7291H4592.26C4751.29 31.7291 4861.23 142.729 4861.23 300.691C4861.23 418.095 4797.19 523.759 4699 550.442L4894.31 813H4716.07L4534.63 564.317ZM4386.27 164.076V434.105H4557.04C4682.99 434.105 4712.87 365.797 4712.87 299.624C4712.87 223.845 4666.98 164.076 4557.04 164.076H4386.27Z" fill="white"/>
</svg>
