<svg width="620" height="867" viewBox="0 0 620 867" fill="none" xmlns="http://www.w3.org/2000/svg">
<rect width="5428" height="1289" transform="translate(-702 -202)" fill="transparent"/>
<path d="M-646.5 716.471L-571.788 603.336C-518.423 646.028 -405.288 697.259 -314.566 697.259C-202.499 697.259 -165.143 652.432 -165.143 604.403C-165.143 530.759 -249.461 513.682 -342.317 495.538C-434.105 477.393 -640.096 448.576 -640.096 259.662C-640.096 76.0849 -474.663 26.9887 -343.384 26.9887C-212.105 26.9887 -130.989 67.5464 -52.0082 127.316L-134.191 240.451C-198.23 196.691 -275.076 165.739 -359.393 165.739C-418.096 165.739 -490.673 183.883 -490.673 244.72C-490.673 316.23 -391.413 335.441 -309.23 352.518C-215.307 371.73 -15.7197 386.672 -15.7197 595.865C-15.7197 757.029 -136.326 834.942 -312.432 834.942C-474.663 834.942 -564.317 777.308 -646.5 716.471ZM609.349 38.7291V171.076H386.281V820H236.858V171.076H12.7224V38.7291H609.349ZM1302.16 171.076H876.301V366.393H1254.13V498.74H876.301V687.654H1302.16V820H727.945V38.7291H1302.16V171.076ZM1605.93 687.654H2018.98V820H1456.51V38.7291H1605.93V687.654ZM2262.58 687.654H2675.63V820H2113.16V38.7291H2262.58V687.654ZM2853.05 820H2690.82L3089.99 38.7291H3104.94L3504.11 820H3341.88L3281.04 697.259H2912.82L2853.05 820ZM3097.46 331.172L2985.4 567.048H3208.47L3097.46 331.172ZM3882.63 571.317H3734.27V820H3585.92V38.7291H3940.26C4099.29 38.7291 4209.23 149.729 4209.23 307.691C4209.23 425.095 4145.19 530.759 4047 557.442L4242.31 820H4064.07L3882.63 571.317ZM3734.27 171.076V441.105H3905.04C4030.99 441.105 4060.87 372.797 4060.87 306.624C4060.87 230.845 4014.98 171.076 3905.04 171.076H3734.27Z" fill="white"/>
</svg>
